<svg xmlns="http://www.w3.org/2000/svg" viewBox="0 0 750.59 749.94"><defs><style>.cls-3{fill:none;stroke-linecap:round;stroke-linejoin:round;stroke-width:2px;stroke:#000}.cls-4{fill:#fae394}.cls-5{fill:#f6977c}.cls-6{fill:#90dfb1}</style></defs><g opacity=".15" id="Layer_2" data-name="Layer 2"><path d="M295.1 248.29h97.79m-38.42 22.32h63.02m269.08-22.32h63.02m-91.32 29.7h63.02M513.28 530.82h102.11m-316.51 56.85h102.11m-59.15 31.82h102.1M35.6 543.06h102.11m416.9-61.6l-17.01-12-17.01 12-17.02-12-17.02 12-17.02-12-17.02 12m-265.6-9.91l-17.01-12-17.01 12-17.02-12-17.02 12-17.02-12-17.02 12m316.18-108.41l-17.02-12-17.01 12-17.02-12-17.01 12-17.03-12-17.02 12m359.39-182.7l-17.02-12-17.01 12-17.02-12-17.02 12-17.02-12-17.02 12m-437.11-8.35l-17.02-12-17.01 12-17.02-12-17.02 12-17.02-12-17.02 12M395.05 57.31l-17.02-12-17.01 12-17.02-12-17.02 12-17.02-12-17.02 12m-73.43 629.02l-17.02-12-17.01 12-17.02-12-17.02 12-17.02-12-17.02 12m591.92 48.28l-17.02-12-17.01 12-17.02-12-17.01 12-17.02-12-17.03 12m-97.79-338.88h97.79m-38.42 22.32h63.02m-13.28 231.69h97.79m-38.42 22.31h63.02M94.53 95.93h97.79m-38.42 22.32h63.02m-81.06 194.29h65.8M626.1 1h97.79m-38.42 22.32h63.02m-302.38 83.77h65.8" stroke="#d8d9da" fill="none" stroke-linecap="round" stroke-linejoin="round" stroke-width="2"/><path class="cls-3" d="M282.08 256.89h97.79m-38.42 22.31h63.01m269.09-22.31h63.02m-91.33 29.7h63.02m-208 252.82h102.1m-316.5 56.86h102.11m-59.16 31.82h102.11M22.58 551.66h102.11m416.9-61.6l-17.02-12-17.01 12-17.01-12-17.02 12-17.03-12-17.02 12m-265.59-9.91l-17.01-12-17.02 12-17.01-12-17.02 12-17.02-12-17.02 12m316.18-108.41l-17.02-12-17.01 12-17.02-12-17.02 12-17.02-12-17.02 12m359.39-182.7l-17.02-12-17.01 12-17.02-12-17.02 12-17.02-12-17.02 12m-437.12-8.35l-17.01-12-17.01 12-17.02-12-17.02 12-17.02-12-17.02 12m378.1-114.78l-17.01-12-17.01 12-17.02-12-17.02 12-17.02-12-17.02 12m-73.44 629.02l-17.01-12-17.01 12-17.02-12-17.02 12-17.02-12-17.02 12m591.92 48.28l-17.02-12-17.01 12-17.02-12-17.02 12-17.02-12-17.02 12M496.4 404.33h97.79m-38.42 22.31h63.02m-13.29 231.7h97.79m-38.42 22.31h63.02M81.5 104.53h97.79m-38.42 22.31h63.02m-81.05 194.3h65.8M613.07 9.6h97.79m-38.42 22.31h63.02m-302.38 83.78h65.8"/><path class="cls-4" d="M577.43 318.25l35.74 16.61-3.48-39.26-32.26 22.65z"/><path class="cls-5" d="M65.02 380.1l35.74 16.61-3.48-39.25-32.26 22.64zM593.54 78.35l17.17 35.46 22.13-32.61-39.3-2.85z"/><path class="cls-6" d="M15.05 17.33L32.23 52.8l22.13-32.62-39.31-2.85z"/><path class="cls-4" d="M48.56 615.78l17.18 35.47 22.13-32.61-39.31-2.86z"/><path class="cls-5" d="M353 706.39l17.18 35.47 22.12-32.61-39.3-2.86z"/><path class="cls-3" d="M563.38 325.33l35.74 16.61-3.49-39.25-32.25 22.64zM50.97 387.18l35.73 16.61-3.48-39.25-32.25 22.64zM579.49 85.43l17.17 35.47 22.13-32.61-39.3-2.86zM1 24.41l17.18 35.47 22.13-32.61L1 24.41zm33.51 598.46l17.18 35.47 22.13-32.61-39.31-2.86zm304.44 90.61l17.17 35.46 22.13-32.61-39.3-2.85z"/><circle class="cls-6" cx="646.89" cy="481.71" r="15.91"/><circle class="cls-4" cx="332.44" cy="534.58" r="15.91" transform="rotate(-76.81 298.89 549.618)"/><circle class="cls-4" cx="352.13" cy="187.38" r="15.91" transform="rotate(-45 306.461 225.78)"/><circle class="cls-5" cx="489.84" cy="370.87" r="15.91" transform="rotate(-76.81 456.296 385.909)"/><circle class="cls-5" cx="598.95" cy="624.87" r="15.91" transform="rotate(-23 518.29 710.085)"/><circle class="cls-5" cx="254.25" cy="38.93" r="15.91" transform="rotate(-76.81 220.707 53.97)"/><circle class="cls-6" cx="718.24" cy="134.51" r="15.91"/><circle class="cls-3" cx="677.59" cy="511.11" r="15.91" transform="rotate(-76.62 644.062 526.235)"/><circle class="cls-3" cx="282.08" cy="521.89" r="15.91"/><circle class="cls-3" cx="342.3" cy="195.73" r="15.91" transform="rotate(-76.62 308.743 210.85)"/><circle class="cls-3" cx="439.48" cy="358.17" r="15.91"/><circle class="cls-3" cx="548.59" cy="612.18" r="15.91"/><circle class="cls-3" cx="203.89" cy="26.23" r="15.91"/><circle class="cls-3" cx="748.94" cy="163.91" r="15.91" transform="rotate(-45 703.268 202.307)"/><path d="M748.44 172.47a1.28 1.28 0 0 1-.91-.37l-6.25-6.1a1.31 1.31 0 0 1 1.83-1.87l5.36 5.25 18.17-16.64a1.3 1.3 0 1 1 1.76 1.92l-19.08 17.48a1.28 1.28 0 0 1-.88.34z" transform="translate(-40.53 -21.05)"/><path class="cls-3" d="M432.68 351.37l13.79 13.79m0-13.79l-13.79 13.79m109.01 240.12l13.79 13.79m0-13.79l-13.79 13.79"/><path d="M677.36 520.1a1.29 1.29 0 0 1-.91-.38l-6.25-6.11a1.3 1.3 0 1 1 1.82-1.86l5.36 5.24 18.18-16.64a1.3 1.3 0 1 1 1.76 1.92l-19.08 17.48a1.31 1.31 0 0 1-.88.35z" transform="translate(-40.53 -21.05)"/><path class="cls-3" d="M196.94 19.88l13.78 13.79m0-13.79l-13.78 13.79"/><path d="M342.29 186.76a.94.94 0 0 1 .28.67v11.43a.92.92 0 0 1-.28.67 1 1 0 0 1-1.63-.67v-11.43a1 1 0 0 1 .28-.67 1 1 0 0 1 1.35 0zm0 15.24a.94.94 0 0 1 .28.67v1.9a1 1 0 0 1-1.63.68 1 1 0 0 1-.28-.68v-1.9a1 1 0 0 1 .28-.67 1 1 0 0 1 1.35 0zm-19.01 331.69a.94.94 0 0 1 .28.67v11.43a.92.92 0 0 1-.28.67 1 1 0 0 1-1.63-.67v-11.43a1 1 0 0 1 .28-.67 1 1 0 0 1 1.35 0zm0 15.24a.94.94 0 0 1 .28.67v1.9a.92.92 0 0 1-.28.67.94.94 0 0 1-1.35 0 1 1 0 0 1-.28-.67v-1.9a1 1 0 0 1 .28-.67 1 1 0 0 1 1.35 0z" transform="translate(-40.53 -21.05)" fill-rule="evenodd"/><circle class="cls-6" cx="168.47" cy="232.8" r="15.91"/><circle class="cls-3" cx="199.86" cy="262.02" r="15.91" transform="rotate(-45 154.19 300.423)"/><path d="M198.31 270.59a1.32 1.32 0 0 1-.91-.37l-6.25-6.12a1.3 1.3 0 0 1 1.82-1.86l5.37 5.25 18.17-16.65a1.31 1.31 0 0 1 1.76 1.93l-19.08 17.47a1.31 1.31 0 0 1-.88.35z" transform="translate(-40.53 -21.05)"/></g></svg>